<?xml version="1.0"?>
<!--
*************Map created by Simplemaps.com********************		
*************Attribution is highly appreciated!***************
*************http://simplemaps.com****************************

The MIT License (MIT)

Copyright (c) 2020 Pareto Softare, LLC DBA Simplemaps.com

Permission is hereby granted, free of charge, to any person obtaining a copy
of this software and associated documentation files (the "Software"), to deal
in the Software without restriction, including without limitation the rights
to use, copy, modify, merge, publish, distribute, sublicense, and/or sell
copies of the Software, and to permit persons to whom the Software is
furnished to do so, subject to the following conditions:

The above copyright notice and this permission notice shall be included in
all copies or substantial portions of the Software.

THE SOFTWARE IS PROVIDED "AS IS", WITHOUT WARRANTY OF ANY KIND, EXPRESS OR
IMPLIED, INCLUDING BUT NOT LIMITED TO THE WARRANTIES OF MERCHANTABILITY,
FITNESS FOR A PARTICULAR PURPOSE AND NONINFRINGEMENT. IN NO EVENT SHALL THE
AUTHORS OR COPYRIGHT HOLDERS BE LIABLE FOR ANY CLAIM, DAMAGES OR OTHER
LIABILITY, WHETHER IN AN ACTION OF CONTRACT, TORT OR OTHERWISE, ARISING FROM,
OUT OF OR IN CONNECTION WITH THE SOFTWARE OR THE USE OR OTHER DEALINGS IN
THE SOFTWARE.

-->
<svg baseprofile="tiny" fill="#ececec" height="857" stroke="black" stroke-linecap="round" stroke-linejoin="round" stroke-width=".2" version="1.2" viewbox="1000 0 2000 857" width="2000" xmlns="http://www.w3.org/2000/svg">
 <path class="Canada" d="M 645.5 212.5 643.3 208.9 646.2 200.4 644.6 198.6 640.9 199.6 639.8 198 634.3 202.7 631.1 207.6 628.3 210.5 625.8 211.5 624.1 211.8 623 213.3 613.7 213.3 605.9 213.4 603.2 214.5 596.4 218.9 596.4 218.8 595.5 218.4 593.5 219.3 591.6 220.6 589.8 219.5 585.1 220.3 581.2 221.2 579.3 222 577 224.1 578.8 224.8 580.5 224.4 580.8 224.4 580.5 226.3 575.7 227 572.9 227.8 571.2 228.8 568.6 228.2 567 228.5 564.1 230.3 559.5 232.3 556.8 231.9 558.8 229.7 562.5 226.2 566.6 224.1 567.7 222.3 568.6 219.3 572.4 215.8 573.3 211.8 574.4 215.7 578.2 216.6 580.6 214.5 579.2 209.7 578.3 207.7 574.3 206.5 570.5 205.8 566.6 205.8 563.2 205 562.8 203.6 561.4 204.5 560.2 204.3 562.1 202.2 560.3 201.4 562.2 199 561 197.2 562.7 195.4 557.5 194.5 557.4 190.9 556.6 190.1 553.3 189.9 549.2 188.7 547.7 189.5 545.9 191 542.6 192 539.5 194.5 534.1 192.8 529.7 193.6 525.8 191.7 521.2 190.7 517.9 190.3 516.9 189.3 517.8 185.9 516.1 185.9 514.8 188.3 504.6 188.3 487.6 188.3 470.8 188.3 455.9 188.3 441.1 188.3 426.4 188.3 411.3 188.3 406.5 188.3 391.8 188.3 377.7 188.3 377 188.3 371.6 182.2 370 179.5 363 176.9 364.3 171.4 367.9 167.7 363.8 165 366.9 160.1 364.8 155.7 367.3 152.5 372.4 149.6 375.6 145.8 371 142 372.4 135.1 373.5 130.9 371.9 128.2 371.1 125.8 371.7 122.7 365.2 124.6 357.6 127.9 357.3 124.1 356.8 121.5 354 119.9 349.8 119.7 385.4 87 410 66.6 416 67.9 419.3 70.5 423 71 429.3 68.8 436.3 67.1 441.6 67.7 450.5 65.4 458.7 64.1 458.9 66.3 463.4 65 467.3 62.5 469.4 63.1 470.8 67.9 480.3 64.2 476.4 68.3 482.4 67.4 485.6 65.9 490.2 66.2 494.1 68.4 501.6 70.4 506.3 71.3 510.7 71 513.6 73.8 505.1 76.5 511.5 77.6 523.4 77 527.8 76 529.2 79.3 536.3 76.6 534.2 74.2 538.7 72.4 543.9 72.1 547.8 71.6 549.9 72.9 551.4 75.8 556.4 75.4 561.7 77.9 568.9 77 574.9 77.1 577.3 73.7 581.8 72.8 586.7 74.6 582.4 79.8 588.6 75.4 591.8 75.6 598.2 70.1 596.6 66.8 593.7 64.6 599.2 58.7 607.4 54.9 611.9 55.8 613.9 58.1 614.3 64.1 608.5 66.7 615.2 67.8 610.8 73.3 619.7 69.1 621.9 72.6 617.6 76.6 618.9 80.3 626.2 76.4 632.7 71.6 637.4 65.7 642.9 66.1 648.3 66.9 651.9 69.6 650.2 72.3 645.1 75.2 646 78.1 643.6 80.8 632.7 84.7 626.2 85.6 623 83.9 619.7 86.7 612.3 91.4 609.3 93.9 601.6 97.7 595.1 98.1 590 100.5 587.1 104.3 581.4 105 572.7 109.7 563.3 116.2 558.3 120.8 553.4 127.7 559.4 128.7 557.9 134.2 557.1 138.8 564.4 137.6 571.4 140.2 574.7 142.5 576.4 145.3 581.3 147 584.9 149.5 592.5 149.9 597.3 150.5 593.7 155.7 592 161.8 592.1 168.7 596.5 174.6 601.2 172.6 606.8 166.2 609.1 156.6 607.4 153.4 616.4 150.5 623.9 146.3 628.7 142.1 630.4 138.1 630 133 626.8 128.5 635.7 122.3 636.7 117 640.6 108 644.4 106.6 651.1 108.2 655.3 108.8 659.8 107.2 662.9 109.2 666.5 112.6 666.7 114.8 674.4 115.3 671.8 120.2 669.5 127.6 673.3 128.6 674.9 132.1 683.1 128.8 690.6 122.2 694.8 119.5 695.9 124.8 698.5 132.3 700.5 139.5 697.1 143.3 701.9 146.7 704.8 150.1 711.7 151.7 714.1 153.6 714.1 158.8 717.5 159.6 718.6 161.9 716.6 168.8 712.3 171.1 708.1 173.3 699.3 175.5 691.4 180.5 682.8 181.6 672.7 180.2 665.4 180.2 660.1 180.6 654.4 185.1 647 187.9 636.9 196.1 629 201.9 633.7 200.9 644.6 192.6 656.9 187.4 664.5 186.8 667.8 189.9 661.7 194.1 661.1 200.8 661.2 205.6 666.8 208.7 675.4 207.8 682.6 200.7 681.6 205.3 684.1 207.6 676.7 211.7 664.3 215.5 658.5 218 651.3 222.6 647.6 222.1 649.1 216.8 659.5 211.5 651.4 211.7 645.5 212.5 Z">
 </path>
</svg>